<svg id="圖層_2" data-name="圖層 2" xmlns="http://www.w3.org/2000/svg" viewBox="0 0 519 228"><defs><style>.cls-1{fill:#fff;}</style></defs><title>工作區域 1</title><g id="圖層_3" data-name="圖層 3"><rect x="-5" y="-97" width="524" height="500"/></g><path class="cls-1" d="M270,210.72H239.11l3.36-26h30.85Zm4.38-33.81H243.48L262.18,32.47H293Z"/><path class="cls-1" d="M307.77,210.72H276.91L295.59,66.4h30.86ZM327.47,58.45H296.62l3.36-26h30.86Z"/><path class="cls-1" d="M497.64,210.72H469.49l3.36-26H501Z"/><path class="cls-1" d="M190.59,212.48q-24.11-1.84-26.95-19.61l-2.31,17.85H134.05l.72-5.59q-4.45,7.58-20.79,7.58a33.93,33.93,0,0,1-12.42-2H69.68L57.63,158.59l-6.75,52.13H20L43.1,32.47H74l-10.36,80L85.29,66.4h31.9l-5.73,11.85Q120.78,66.18,143,65.5L139.95,88q-5.14,1.51-7.16,17.1-.4,3.11-.87,9.2t-.76,9.2H101.39l3.73-28.84A41.6,41.6,0,0,1,106.25,89L86.67,129.55l8.32,35,.44-3.39a29,29,0,0,1,8.3-16.91q7-7.21,27-18c1.65-.89,3.09-1.73,4.4-2.54l-3.55,26.17a10.94,10.94,0,0,0-4.79,7.7l-3.39,26.23q-.85,6.59,4.67,6.59,5.09,0,5.94-6.59l15.3-118.25q26.21,1.32,27.26,22.61,6.67-20.8,33.86-22.52Z"/><path class="cls-1" d="M239.5,72.49q-9.75-7-23.75-7.08l-3,22.42c3.1.26,4.39,2.59,3.81,7l-11.44,88.38q-.95,7.33-6.25,7.33h-.08l-3,22.12h.65q35.73,0,39.51-29.21l11.5-88.88Q249.35,79.58,239.5,72.49Z"/><polyline class="cls-1" points="345.17 210.35 314.31 210.35 332.99 66.04 363.85 66.04"/><path class="cls-1" d="M417.13,211.42c-16.63-1.22-25.93-7.74-28-19.52l-2.38,18.46H355.89l15-115.85c.51-3.85-.58-6-3.25-6.49l2.89-21.15A38.88,38.88,0,0,1,383.09,65a22.61,22.61,0,0,1,14.74,5.23c3.94,3.22,5.67,7.89,5.18,13.92,5.09-11.94,16.21-18.52,33.35-19.66"/><path class="cls-1" d="M468.42,147.22l-4.54,35.18q-3.8,29.22-40.78,29.22H423l3-22.17c3.29-.2,5.25-2.62,5.87-7.29l4.51-34.93Z"/><path class="cls-1" d="M475.38,93.53l-4.62,35.67h-32l4.58-35.42q.83-6.3-3.34-7l3-22.46Q479.1,64.64,475.38,93.53Z"/></svg>